<?xml version="1.0" encoding="utf-8"?>
<!-- Generator: Adobe Illustrator 23.0.2, SVG Export Plug-In . SVG Version: 6.00 Build 0)  -->
<svg version="1.1" id="Laag_1" xmlns="http://www.w3.org/2000/svg" xmlns:xlink="http://www.w3.org/1999/xlink" x="0px" y="0px"
	 viewBox="0 0 1000 1000" style="enable-background:new 0 0 1000 1000;" xml:space="preserve">
<style type="text/css">
	.st0{fill:#EA0606;}
</style>
<g>
	<g>
		<path class="st0" d="M194.83,60.7c0-5.44,3.26-8.7,8.69-8.7h130.42c51.08,0,78.25,27.17,78.25,78.25v132.59
			c0,50.54-27.17,78.25-78.25,78.25h-65.2v136.94c0,5.44-2.72,8.7-8.7,8.7h-56.51c-5.43,0-8.69-3.26-8.69-8.7V60.7z M316.55,269.36
			c14.67,0,21.74-8.15,21.74-21.73V145.47c0-14.13-7.07-21.73-21.74-21.73h-47.82v145.63H316.55z"/>
		<path class="st0" d="M520.98,52c5.43,0,8.7,3.26,8.7,8.7v417.33c0,5.44-3.26,8.7-8.7,8.7h-56.51c-5.98,0-8.7-3.26-8.7-8.7V60.7
			c0-5.44,2.72-8.7,8.7-8.7H520.98z"/>
		<path class="st0" d="M796.47,52c5.44,0,8.7,3.26,8.7,8.7v417.33c0,5.44-3.26,8.7-8.7,8.7h-53.8c-4.89,0-8.15-2.18-9.78-7.07
			l-83.14-232.03h-2.72v230.4c0,5.44-2.71,8.7-8.7,8.7h-56.51c-5.43,0-8.69-3.26-8.69-8.7V60.7c0-5.44,3.26-8.7,8.69-8.7h53.8
			c4.89,0,8.15,2.18,9.78,7.07l82.6,230.95h3.26V60.7c0-5.44,2.72-8.7,8.7-8.7H796.47z"/>
	</g>
	<g>
		<path class="st0" d="M194.83,521.97c0-5.44,3.26-8.7,8.69-8.7h130.42c51.08,0,78.25,27.17,78.25,78.25v132.59
			c0,50.54-27.17,78.25-78.25,78.25h-65.2V939.3c0,5.44-2.72,8.7-8.7,8.7h-56.51c-5.43,0-8.69-3.26-8.69-8.7V521.97z M316.55,730.64
			c14.67,0,21.74-8.15,21.74-21.73V606.74c0-14.13-7.07-21.73-21.74-21.73h-47.82v145.63H316.55z"/>
		<path class="st0" d="M520.98,513.28c5.43,0,8.7,3.26,8.7,8.7V939.3c0,5.44-3.26,8.7-8.7,8.7h-56.51c-5.98,0-8.7-3.26-8.7-8.7
			V521.97c0-5.44,2.72-8.7,8.7-8.7H520.98z"/>
		<path class="st0" d="M796.47,513.28c5.44,0,8.7,3.26,8.7,8.7V939.3c0,5.44-3.26,8.7-8.7,8.7h-53.8c-4.89,0-8.15-2.18-9.78-7.07
			L649.76,708.9h-2.72v230.4c0,5.44-2.71,8.7-8.7,8.7h-56.51c-5.43,0-8.69-3.26-8.69-8.7V521.97c0-5.44,3.26-8.7,8.69-8.7h53.8
			c4.89,0,8.15,2.18,9.78,7.07l82.6,230.95h3.26V521.97c0-5.44,2.72-8.7,8.7-8.7H796.47z"/>
	</g>
</g>
</svg>
